<svg xml:space="preserve" style="enable-background:new 0 0 5000 5000;" viewBox="0 0 5000 5000" y="0px" x="0px" xmlns:xlink="http://www.w3.org/1999/xlink" xmlns="http://www.w3.org/2000/svg" version="1.1">
<style type="text/css">
	.st0{display:none;}
	.st1{display:inline;opacity:0.04;}
	.st2{fill:#FFFFFF;}
</style>
<g class="st0" id="Livello_1">
	<g class="st1">
		<g>
			<path d="M2499.95,3001.44c-166.32,0-332.64,0-498.96-0.11c-0.82,0-2.35-1.6-2.35-2.45
				c-0.1-332.63-0.1-665.26,0-997.89c0-0.82,1.6-2.35,2.45-2.35c332.64-0.1,665.28-0.1,997.92,0c0.82,0,2.35,1.6,2.35,2.45
				c0.1,332.63,0.1,665.26,0,997.89c0,0.82-1.6,2.35-2.45,2.35C2832.59,3001.44,2666.27,3001.44,2499.95,3001.44z M2809.15,2364.2
				c-0.11-0.13-0.39-0.54-0.75-0.86c-6-5.27-11.88-10.69-18.04-15.77c-9.11-7.51-18.4-14.82-27.72-22.07
				c-0.75-0.58-3.21-0.45-3.47,0.06c-4.39,8.85-8.43,17.86-12.81,26.72c-5.55,11.22-11.41,22.28-16.99,33.48
				c-5.79,11.65-11.32,23.42-17.12,35.07c-8.45,16.98-17.16,33.84-25.54,50.85c-8.35,16.94-16.35,34.04-24.68,51
				c-5.21,10.61-10.77,21.05-16.1,31.6c-6.19,12.28-12.25,24.63-18.44,36.91c-4.58,9.07-9.39,18.03-13.89,27.13
				c-6.17,12.48-12.09,25.07-18.23,37.57c-5.8,11.8-11.77,23.53-17.63,35.31c-5.78,11.63-11.47,23.3-17.27,34.91
				c-5.83,11.69-11.79,23.32-17.62,35.01c-5.09,10.22-10.08,20.48-15.11,30.73c-3.5,7.14-6.93,14.32-10.49,21.43
				c-3.91,7.81-7.72,15.69-12,23.29c-2.81,4.99-7.67,4.76-10.23-0.3c-8.41-16.64-16.7-33.35-24.97-50.06
				c-10.38-20.98-20.68-42.01-31.06-62.99c-10.1-20.4-20.3-40.75-30.39-61.16c-9.46-19.13-18.75-38.34-28.25-57.46
				c-7.7-15.5-15.66-30.86-23.4-46.34c-7.82-15.64-15.51-31.33-23.23-47.01c-4.12-8.37-8.04-16.84-12.26-25.15
				c-7.02-13.8-14.32-27.46-21.3-41.28c-6.66-13.2-13.02-26.56-19.6-39.81c-4.96-9.97-10.13-19.84-15.1-29.81
				c-4.63-9.27-9.14-18.6-13.69-27.91c-3.33-6.82-6.62-13.65-9.95-20.48c-0.4-0.82-0.99-2.31-1.34-2.27
				c-1.05,0.13-2.17,0.69-2.99,1.4c-2.84,2.47-5.42,5.26-8.36,7.6c-11.06,8.8-22.21,17.5-33.36,26.19c-3.31,2.58-5.2,5.34-1.96,9.26
				c0.53,0.64,1.08,1.28,1.46,2.01c7.74,14.97,15.52,29.92,23.14,44.95c7.38,14.54,14.56,29.19,21.89,43.76
				c7.46,14.84,14.99,29.64,22.5,44.46c8.19,16.14,16.3,32.32,24.6,48.4c7.08,13.72,14.52,27.26,21.56,41.01
				c7.85,15.32,15.47,30.77,23.14,46.19c5.81,11.7,11.43,23.5,17.33,35.17c6.91,13.68,14.12,27.2,21.03,40.88
				c7.14,14.15,13.97,28.46,21.12,42.61c10.94,21.64,22.15,43.14,33.04,64.8c8.41,16.73,16.42,33.65,24.76,50.41
				c12.2,24.51,24.54,48.95,36.8,73.43c3.74,7.47,7.33,15.02,11.16,22.44c1.79,3.47,4.14,3.49,5.91-0.02
				c4.83-9.6,9.4-19.32,14.24-28.92c7.36-14.6,14.96-29.09,22.27-43.72c9.04-18.09,17.81-36.31,26.86-54.4
				c7.18-14.35,14.67-28.55,21.88-42.89c7.77-15.47,15.29-31.07,23.06-46.55c7-13.94,14.26-27.75,21.26-41.69
				c6.54-13.02,12.8-26.18,19.33-39.2c6.15-12.27,12.54-24.41,18.74-36.66c12.14-23.97,24.21-47.96,36.32-71.95
				c6.45-12.77,12.87-25.56,19.37-38.31c8.74-17.14,17.54-34.26,26.32-51.38c5.75-11.21,11.52-22.41,17.25-33.63
				c5.35-10.46,10.66-20.93,15.99-31.39c5.1-10.01,10.19-20.03,15.33-30.02C2803.96,2373.98,2806.51,2369.2,2809.15,2364.2z
				 M2475.55,2448.62c0.16,0,0.32,0,0.48,0c0-14.14,0.02-28.27,0-42.41c-0.05-31.91-0.12-63.83-0.18-95.74
				c-0.07-37.8-0.15-75.61-0.21-113.41c-0.05-34.77-0.1-69.55-0.11-104.32c-0.01-19.77,0.16-39.54-0.07-59.3
				c-0.02-2-2.25-3.97-3.45-5.95c-1.24,1.63-3,3.09-3.64,4.93c-2.17,6.25-3.52,12.82-5.97,18.95c-6.62,16.56-13.3,33.12-20.65,49.37
				c-4.51,9.98-9.56,19.89-15.69,28.94c-8.88,13.1-18.27,26-28.71,37.87c-11.14,12.67-23.04,24.9-35.92,35.77
				c-13.76,11.61-29.08,21.38-43.61,32.1c-0.82,0.6-1.31,2.88-0.83,3.77c1.19,2.19,2.94,4.12,4.68,5.96
				c0.45,0.48,1.92,0.64,2.48,0.27c8.04-5.35,15.6-11.57,24.08-16.09c17.42-9.29,35.32-17.68,53.04-26.42
				c5.26-2.6,15.89,1.28,17.25,7.32c1,4.43,1.29,9.07,1.42,13.63c0.37,13.58,0.61,27.17,0.7,40.75c0.08,11.28-0.16,22.57-0.17,33.86
				c0,11.3,0.11,22.61,0.18,33.91c0.12,17.52,0.33,35.04,0.35,52.56c0.02,16.86-0.22,33.71-0.21,50.57
				c0.02,33.42,0.16,66.84,0.19,100.26c0.01,19.77-0.16,39.54-0.14,59.32c0.01,13.53,0.89,27.1,0.09,40.58
				c-0.74,12.46,2.57,23.27,8.21,34.13c12.25,23.56,23.8,47.48,35.64,71.25c1.12,2.25,2.24,4.5,3.36,6.75
				c1.09-2.11,2.23-4.19,3.25-6.34c6.05-12.75,12.33-25.41,18-38.33c3.46-7.89,3.04-8.07-5.03-10.93c-0.54-0.19-1.07-0.46-1.54-0.78
				c-7.17-4.86-7.44-12.11-7.21-19.79c0.36-12.08,0.36-24.17,0.38-36.26c0.05-25.49,0.08-50.97,0.01-76.46
				c-0.07-25.01-0.31-50.01-0.43-75.02C2475.5,2472.12,2475.55,2460.37,2475.55,2448.62z M2579.94,2221.43
				c0.6-3.4,1.02-5.33,1.28-7.29c1.05-7.95,8.74-14.29,15.83-11.51c13.8,5.4,27.57,11.17,40.57,18.24
				c13.47,7.33,25.92,16.53,39.15,24.35c0.85,0.5,4.69-3.7,6.85-5.98c0.6-0.63,0.65-2.89,0.11-3.3c-4.5-3.44-9.28-6.5-13.81-9.89
				c-12.13-9.09-24.88-17.51-36.08-27.64c-12.45-11.26-24.05-23.61-34.94-36.41c-9.45-11.09-18.29-22.92-25.77-35.39
				c-9.01-15.03-17.16-30.72-24.09-46.81c-6.7-15.55-11.33-31.99-17.03-47.98c-0.59-1.65-2.32-2.89-3.52-4.33
				c-1.14,1.87-3.19,3.7-3.27,5.61c-0.29,6.97,0.16,13.97,0.18,20.97c0.07,21.35,0.1,42.71,0.08,64.06
				c-0.03,35.14-0.09,70.28-0.15,105.42c-0.06,36.5-0.15,73.01-0.21,109.51c-0.04,29-0.05,58-0.06,87c0,24.15,0.03,48.29,0.02,72.44
				c0,27.66,0.02,55.32-0.05,82.98c-0.05,19.96-0.18,39.92-0.38,59.88c-0.16,15.82-0.36,31.64-0.81,47.45
				c-0.14,5.02-5.35,9.14-10.27,10.05c-1.85,0.34-4.99,3.59-4.7,4.26c7.21,16.43,14.8,32.69,22.35,48.97
				c0.3,0.65,0.87,1.16,1.31,1.74c0.4-0.6,0.89-1.15,1.19-1.8c1.6-3.55,3.02-7.18,4.74-10.66c7.41-15.05,14.87-30.07,22.37-45.07
				c4.3-8.59,8.88-17.05,13.01-25.73c2.21-4.64,5.18-9.58,5.31-14.45c0.58-20.59,0.22-41.2,0.22-61.8c0-28.4,0.01-56.8,0.02-85.19
				c0.01-26.63-0.08-53.25,0.06-79.88c0.09-17.13,0.69-34.25,0.72-51.37c0.03-14.48-0.63-28.96-0.63-43.44
				c0-13.53,0.61-27.07,0.71-40.6c0.08-10.77-0.25-21.55-0.31-32.32C2579.89,2243.67,2579.94,2231.82,2579.94,2221.43z
				 M2374.9,2457.53c-1.77-18.91-2.61-34.58-4.85-50.05c-2.18-15.05-5.28-30.03-8.95-44.79c-2.66-10.71-6.58-21.15-10.53-31.49
				c-3.91-10.23-7.75-20.64-13.07-30.16c-9.36-16.75-18.72-33.71-30.12-49.06c-12.33-16.58-26.11-32.33-40.92-46.74
				c-13.15-12.79-28.41-23.47-43.09-34.62c-8.28-6.29-17.15-11.85-26-17.34c-12.41-7.7-24.92-15.26-37.63-22.46
				c-16.8-9.51-34.17-18.06-50.65-28.08c-11.32-6.89-22.14-14.89-32.14-23.61c-14.09-12.29-27.32-25.57-40.66-38.69
				c-3.56-3.5-6.05-8.08-9.35-11.89c-0.67-0.77-2.88-0.67-4.13-0.23c-0.5,0.17-0.83,2.56-0.37,3.52c2.37,4.98,5.09,9.8,7.58,14.72
				c8.15,16.11,16.24,32.26,24.38,48.38c5.01,9.92,10.06,19.83,15.07,29.75c11.16,22.1,22.23,44.25,33.47,66.3
				c8.07,15.83,16.4,31.53,24.56,47.32c6.18,11.95,12.32,23.91,18.4,35.91c8.01,15.79,15.93,31.63,24,47.39
				c0.24,0.46,2.15,0.71,2.63,0.3c3.36-2.88,6.34-6.25,9.84-8.94c12.14-9.32,24.45-18.42,36.63-27.69c0.53-0.4,0.76-1.94,0.44-2.6
				c-7.71-15.76-15.89-31.3-23.17-47.26c-5.58-12.22-11.24-24.47-9.05-38.87c2.39-15.75,9.37-19.45,20.96-16.37
				c16.68,4.45,29.44,15.83,41.85,27.14c9.02,8.22,17.95,16.71,25.78,26.05c11.09,13.24,21.93,26.83,31.36,41.27
				c7.77,11.89,13.8,25.02,19.75,37.98c5.79,12.61,11.44,25.43,15.45,38.68c5.03,16.62,8.96,33.65,12.17,50.73
				c2.5,13.32,3.77,26.94,4.49,40.49c0.71,13.39,0.44,26.87-0.19,40.27c-0.4,8.53-2.26,16.99-3.42,25.49
				c-0.53,3.91-2.14,8.18-1.14,11.68c1.61,5.65,4.96,10.81,7.61,16.16c0.23,0.47,0.74,0.81,1.12,1.21c0.38-0.6,0.97-1.17,1.09-1.82
				c1.34-6.94,2.93-13.86,3.84-20.86C2370.55,2494.6,2372.86,2474.51,2374.9,2457.53z M2797.62,2177.84
				c0.24,0.59,0.48,1.18,0.72,1.77c6.94-0.88,10.76,2.94,13.11,8.77c5.25,13.05,2.33,25.86-2.96,37.77
				c-8.53,19.21-18.35,37.85-27.54,56.77c-0.28,0.58,0.16,1.99,0.71,2.41c4.67,3.59,9.57,6.88,14.16,10.55
				c10.94,8.74,21.73,17.66,32.65,26.43c0.39,0.31,1.86,0.07,2.06-0.31c8.63-16.58,17.25-33.16,25.7-49.83
				c8-15.79,15.72-31.73,23.72-47.52c10.9-21.52,21.93-42.96,32.92-64.43c12.11-23.66,24.26-47.31,36.33-70.99
				c9.6-18.83,19.15-37.68,28.58-56.58c0.61-1.22,0.05-3.02,0.03-4.54c-1.66,0.36-4.02,0.15-4.88,1.18
				c-5.16,6.21-9.34,13.36-15.03,18.98c-11.52,11.38-23.16,22.81-35.94,32.7c-13.62,10.54-28.3,19.82-43.07,28.74
				c-16.32,9.85-33.44,18.36-49.88,28.02c-16.22,9.53-32.32,19.34-47.91,29.85c-11.84,7.98-23.35,16.64-34.04,26.1
				c-12.98,11.49-26.15,23.15-37.02,36.54c-13.69,16.86-26.17,34.93-37.25,53.62c-9.55,16.11-17.65,33.36-24.08,50.95
				c-6.71,18.36-11.67,37.53-15.49,56.73c-3.45,17.35-5.12,35.16-6.1,52.85c-0.74,13.43,0.07,27.07,1.55,40.47
				c1.89,17.01,5.15,33.88,7.86,50.8c0.09,0.59,0.62,1.11,0.94,1.67c0.59-0.63,1.37-1.16,1.73-1.9c2.1-4.33,4.18-8.68,6.09-13.1
				c0.69-1.6,1.47-3.49,1.25-5.12c-1.52-11.18-4.28-22.29-4.74-33.5c-0.72-17.57-1.42-35.38,0.57-52.78
				c2.57-22.54,6.06-45.27,12.34-67c6.36-22,15.53-43.4,25.5-64.08c8.4-17.43,18.81-34.11,30.04-49.9
				c8.4-11.8,18.99-22.25,29.62-32.21c11.38-10.67,23.56-20.6,36.17-29.79C2782.35,2183.32,2790.38,2181.12,2797.62,2177.84z
				 M2226.27,2674.78c-4.29-0.43-8.58-0.82-12.86-1.28c-15.8-1.71-30.42-7.1-44.23-14.71c-17.09-9.42-32.14-21.48-44.33-36.77
				c-6.38-8.01-13-16.07-17.81-25.03c-5.93-11.05-11.15-22.74-14.72-34.73c-3.38-11.34-4.82-23.38-5.96-35.22
				c-0.75-7.8-0.23-15.94,1.14-23.68c1.73-9.73,4.04-19.55,7.67-28.71c4.7-11.86,10.58-23.31,16.62-34.58
				c5.12-9.56,10.82-18.87,16.92-27.84c6.75-9.92,13.71-19.8,21.58-28.83c9.91-11.37,20.56-22.14,31.43-32.62
				c6.47-6.24,13.89-11.51,21-17.06c10.79-8.43,21.65-16.79,32.55-25.08c7.66-5.83,15.4-11.55,23.17-17.23
				c8.55-6.25,17.18-12.41,25.77-18.61c0.69-0.5,1.95-1.47,1.9-1.53c-2-3.04-4.08-6.04-6.29-8.93c-0.24-0.32-1.36,0.01-2.07,0.08
				c-0.11,0.01-0.17,0.29-0.3,0.39c-3.77,2.91-7.45,5.95-11.34,8.69c-8.59,6.04-17.47,11.69-25.9,17.94
				c-9.18,6.81-17.92,14.22-26.98,21.21c-11.11,8.57-22.59,16.66-33.44,25.54c-7.24,5.93-13.86,12.66-20.38,19.4
				c-8.95,9.26-17.91,18.56-26.15,28.44c-6.83,8.19-13.19,16.9-18.76,26c-8.81,14.42-17.4,29.04-24.9,44.16
				c-5.18,10.44-9.08,21.66-12.22,32.9c-3.42,12.24-6.28,24.8-7.58,37.41c-1.31,12.71-0.47,25.64-0.47,38.48
				c0,15.99,3.88,31.46,10.52,45.59c6.68,14.23,15.14,27.93,24.72,40.4c12.03,15.66,27.82,27.46,45.38,36.87
				c15.68,8.4,32.37,13.58,49.85,15.16c16.79,1.52,33.74-0.72,49.1-7.69c11.75-5.33,22.84-12.66,33.13-20.53
				c8.48-6.48,15.26-15.16,22.98-22.68c8.47-8.25,8.99-10.21,4.31-20.8c-0.47-1.06-0.7-2.24-1.23-3.26
				c-0.15-0.28-1.28-0.46-1.44-0.27c-4.5,5.69-8.5,11.84-13.47,17.08c-6.41,6.76-12.96,13.7-20.56,18.96
				C2258.87,2671.36,2242.94,2674.57,2226.27,2674.78z M2914.79,2528.58c-0.24,1.72-0.36,3.46-0.75,5.15
				c-3.14,13.68-5.41,27.65-9.73,40.95c-5.03,15.48-13.23,29.74-24.08,41.92c-9.72,10.91-19.78,21.83-31.24,30.78
				c-17.74,13.86-38,23.04-60.75,26.01c-16.43,2.15-32.3,0.77-47.91-5.03c-10.75-3.99-19.14-11.16-26.91-19.01
				c-6.3-6.37-11.59-13.75-17.32-20.69c-0.98-1.19-1.94-2.4-2.92-3.61c-0.57,1.32-1.1,2.66-1.71,3.96
				c-0.56,1.21-0.99,2.56-1.84,3.54c-4.14,4.77-2.21,8.73,1.53,12.43c10.09,9.96,19.86,20.28,30.43,29.7
				c10.52,9.38,22.38,16.87,36.16,20.95c19.95,5.9,40,7.69,60.38,2.47c14.56-3.73,28.3-9.17,41.15-17.23
				c15.63-9.81,29.09-21.82,40.58-36.13c11.71-14.57,20.35-30.98,25.56-48.8c3.46-11.84,6.22-24.31,6.48-36.56
				c0.35-16.66-0.98-33.52-3.51-50.01c-2.02-13.15-6.34-26.05-10.69-38.7c-3.75-10.9-8.25-21.7-13.78-31.8
				c-6.98-12.76-14.71-25.22-23.29-36.96c-9.79-13.4-20.29-26.39-31.56-38.57c-9.68-10.46-20.68-19.74-31.45-29.14
				c-8.27-7.22-17.01-13.92-25.7-20.64c-6.95-5.38-14.17-10.4-21.21-15.66c-9.17-6.85-18.23-13.85-27.42-20.67
				c-6.65-4.93-13.39-9.73-20.21-14.42c-0.68-0.47-2.81-0.14-3.18,0.47c-1.75,2.92-4.59,6.28-4.18,9.07
				c0.33,2.28,4.66,4.02,7.28,5.9c7.02,5.05,14.09,10.04,21.11,15.09c9.32,6.7,18.82,13.18,27.9,20.2
				c15.87,12.27,31.85,24.44,47.06,37.49c9.92,8.51,19,18.13,27.66,27.95c7.88,8.92,15.23,18.43,21.84,28.33
				c8.58,12.85,16.89,25.98,24.03,39.66c6.5,12.48,11.75,25.68,16.68,38.88C2914.41,2499.55,2915.78,2513.96,2914.79,2528.58z
				 M2833.86,2951.27c0.09-0.07,1.56-0.77,2.17-1.93c0.37-0.71-0.24-2.53-0.99-3.11c-1.66-1.29-3.57-2.64-5.56-3.03
				c-12.29-2.37-24.83-3.74-36.91-6.87c-11.52-2.98-22.91-6.99-33.81-11.8c-21.26-9.38-41.66-20.54-59.77-35.23
				c-13.16-10.67-26.33-21.53-38.12-33.64c-11.47-11.77-21.63-24.92-31.51-38.1c-6.42-8.57-11.29-18.29-16.89-27.48
				c-0.4-0.65-1.07-1.14-1.62-1.7c-0.56,0.76-1.26,1.46-1.67,2.3c-6.08,12.51-12.16,25.01-18.09,37.59
				c-0.52,1.11-0.46,3.2,0.26,4.05c3.29,3.92,6.79,7.7,10.45,11.28c7.53,7.39,14.96,14.93,22.9,21.87
				c10.6,9.26,21.33,18.43,32.58,26.86c9.18,6.88,18.99,12.99,28.91,18.77c10.09,5.89,20.42,11.51,31.08,16.24
				c10.84,4.81,21.95,9.57,33.43,12.28c20.01,4.72,40.35,8.16,60.67,11.46C2818.27,2952.21,2825.5,2951.27,2833.86,2951.27z
				 M2195.5,2951.44c0.03-0.31,0.05-0.62,0.08-0.93c8.64-1.13,17.36-1.84,25.9-3.49c22.71-4.39,44.91-10.77,65.39-21.66
				c17.97-9.55,35.61-19.83,52.76-30.78c10.9-6.96,21.11-15.19,30.77-23.82c12.19-10.88,23.58-22.65,35.1-34.25
				c2.04-2.05,4.92-5.98,4.2-7.63c-5.73-13.1-12.23-25.87-18.54-38.72c-0.33-0.67-1-1.17-1.51-1.75c-0.52,0.59-1.17,1.12-1.54,1.79
				c-2.05,3.78-3.75,7.78-6.08,11.36c-4.61,7.08-9.21,14.22-14.44,20.82c-9.16,11.56-18.3,23.2-28.39,33.93
				c-8.76,9.32-18.26,18.15-28.43,25.88c-13.6,10.34-27.74,20.14-42.46,28.78c-12.09,7.09-25.11,12.8-38.17,17.97
				c-18.57,7.35-37.59,13.47-57.88,14.26c-2.19,0.09-4.48,1.49-6.41,2.76c-0.86,0.57-1.62,3.04-1.24,3.4
				c1.08,1.03,2.76,1.94,4.22,1.97C2177.72,2951.52,2186.61,2951.44,2195.5,2951.44z" class="st2"></path>
			<path d="M2809.15,2364.2c-2.63,5-5.19,9.78-7.66,14.59c-5.13,9.99-10.22,20.01-15.33,30.02c-5.33,10.46-10.65,20.94-15.99,31.39
				c-5.74,11.22-11.5,22.42-17.25,33.63c-8.78,17.12-17.58,34.24-26.32,51.38c-6.5,12.75-12.92,25.53-19.37,38.31
				c-12.11,23.98-24.18,47.98-36.32,71.95c-6.2,12.24-12.59,24.39-18.74,36.66c-6.53,13.02-12.79,26.18-19.33,39.2
				c-7,13.94-14.27,27.75-21.26,41.69c-7.77,15.47-15.29,31.07-23.06,46.55c-7.2,14.34-14.7,28.53-21.88,42.89
				c-9.04,18.09-17.82,36.31-26.86,54.4c-7.31,14.63-14.91,29.12-22.27,43.72c-4.84,9.59-9.41,19.32-14.24,28.92
				c-1.77,3.52-4.12,3.49-5.91,0.02c-3.83-7.42-7.42-14.97-11.16-22.44c-12.26-24.48-24.6-48.92-36.8-73.43
				c-8.34-16.76-16.35-33.69-24.76-50.41c-10.89-21.66-22.1-43.17-33.04-64.8c-7.15-14.15-13.98-28.46-21.12-42.61
				c-6.91-13.68-14.12-27.21-21.03-40.88c-5.89-11.66-11.51-23.46-17.33-35.17c-7.66-15.42-15.28-30.87-23.14-46.19
				c-7.04-13.74-14.48-27.28-21.56-41.01c-8.3-16.08-16.42-32.26-24.6-48.4c-7.51-14.81-15.04-29.62-22.5-44.46
				c-7.33-14.57-14.51-29.21-21.89-43.76c-7.63-15.03-15.41-29.98-23.14-44.95c-0.38-0.73-0.93-1.38-1.46-2.01
				c-3.25-3.92-1.36-6.68,1.96-9.26c11.15-8.69,22.3-17.38,33.36-26.19c2.94-2.34,5.52-5.13,8.36-7.6c0.82-0.71,1.94-1.27,2.99-1.4
				c0.35-0.04,0.93,1.44,1.34,2.27c3.32,6.82,6.62,13.66,9.95,20.48c4.55,9.31,9.06,18.64,13.69,27.91
				c4.98,9.96,10.14,19.83,15.1,29.81c6.59,13.24,12.94,26.6,19.6,39.81c6.98,13.82,14.28,27.48,21.3,41.28
				c4.23,8.31,8.15,16.78,12.26,25.15c7.71,15.69,15.41,31.38,23.23,47.01c7.74,15.48,15.7,30.85,23.4,46.34
				c9.5,19.11,18.79,38.32,28.25,57.46c10.09,20.41,20.29,40.76,30.39,61.16c10.39,20.98,20.68,42.01,31.06,62.99
				c8.27,16.71,16.56,33.42,24.97,50.06c2.56,5.06,7.43,5.29,10.23,0.3c4.28-7.61,8.09-15.48,12-23.29
				c3.56-7.11,6.99-14.29,10.49-21.43c5.03-10.25,10.02-20.51,15.11-30.73c5.83-11.69,11.78-23.32,17.62-35.01
				c5.8-11.62,11.49-23.29,17.27-34.91c5.86-11.78,11.83-23.5,17.63-35.31c6.14-12.49,12.06-25.09,18.23-37.57
				c4.5-9.11,9.32-18.06,13.89-27.13c6.19-12.28,12.25-24.63,18.44-36.91c5.32-10.56,10.89-20.99,16.1-31.6
				c8.32-16.95,16.33-34.06,24.68-51c8.39-17.01,17.09-33.87,25.54-50.85c5.8-11.64,11.33-23.42,17.12-35.07
				c5.58-11.2,11.44-22.27,16.99-33.48c4.38-8.85,8.42-17.87,12.81-26.72c0.25-0.51,2.72-0.64,3.47-0.06
				c9.32,7.25,18.61,14.56,27.72,22.07c6.16,5.08,12.04,10.49,18.04,15.77C2808.76,2363.66,2809.04,2364.07,2809.15,2364.2z"></path>
			<path d="M2475.55,2448.62c0,11.75-0.05,23.5,0.01,35.25c0.12,25.01,0.36,50.01,0.43,75.02c0.07,25.49,0.04,50.97-0.01,76.46
				c-0.02,12.09-0.02,24.18-0.38,36.26c-0.23,7.68,0.05,14.93,7.21,19.79c0.47,0.32,1,0.59,1.54,0.78c8.07,2.87,8.5,3.05,5.03,10.93
				c-5.68,12.92-11.95,25.57-18,38.33c-1.02,2.14-2.16,4.23-3.25,6.34c-1.12-2.25-2.24-4.5-3.36-6.75
				c-11.84-23.77-23.4-47.69-35.64-71.25c-5.64-10.86-8.95-21.66-8.21-34.13c0.8-13.48-0.08-27.05-0.09-40.58
				c-0.01-19.77,0.16-39.54,0.14-59.32c-0.02-33.42-0.17-66.84-0.19-100.26c-0.01-16.86,0.23-33.71,0.21-50.57
				c-0.02-17.52-0.23-35.04-0.35-52.56c-0.08-11.3-0.19-22.61-0.18-33.91c0-11.29,0.25-22.57,0.17-33.86
				c-0.1-13.59-0.33-27.17-0.7-40.75c-0.12-4.56-0.42-9.2-1.42-13.63c-1.36-6.04-11.99-9.92-17.25-7.32
				c-17.71,8.74-35.61,17.14-53.04,26.42c-8.48,4.52-16.04,10.74-24.08,16.09c-0.55,0.37-2.03,0.2-2.48-0.27
				c-1.73-1.84-3.49-3.76-4.68-5.96c-0.48-0.89,0.01-3.17,0.83-3.77c14.53-10.72,29.85-20.49,43.61-32.1
				c12.88-10.87,24.78-23.1,35.92-35.77c10.44-11.87,19.83-24.77,28.71-37.87c6.13-9.05,11.18-18.95,15.69-28.94
				c7.35-16.25,14.03-32.81,20.65-49.37c2.45-6.13,3.79-12.7,5.97-18.95c0.64-1.84,2.39-3.29,3.64-4.93
				c1.2,1.98,3.43,3.96,3.45,5.95c0.23,19.76,0.06,39.53,0.07,59.3c0.01,34.77,0.06,69.55,0.11,104.32
				c0.06,37.8,0.14,75.61,0.21,113.41c0.06,31.91,0.13,63.83,0.18,95.74c0.02,14.14,0,28.27,0,42.41
				C2475.87,2448.61,2475.71,2448.61,2475.55,2448.62z"></path>
			<path d="M2579.94,2221.43c0,10.39-0.05,22.24,0.01,34.08c0.06,10.77,0.39,21.55,0.31,32.32c-0.1,13.54-0.71,27.07-0.71,40.6
				c0,14.48,0.66,28.96,0.63,43.44c-0.03,17.12-0.64,34.25-0.72,51.37c-0.14,26.63-0.05,53.25-0.06,79.88
				c-0.01,28.4-0.02,56.8-0.02,85.19c0,20.6,0.36,41.21-0.22,61.8c-0.14,4.87-3.1,9.8-5.31,14.45c-4.13,8.67-8.71,17.13-13.01,25.73
				c-7.5,15-14.96,30.02-22.37,45.07c-1.72,3.49-3.14,7.12-4.74,10.66c-0.29,0.65-0.78,1.2-1.19,1.8c-0.44-0.58-1.01-1.1-1.31-1.74
				c-7.55-16.28-15.14-32.54-22.35-48.97c-0.29-0.67,2.85-3.92,4.7-4.26c4.92-0.91,10.12-5.02,10.27-10.05
				c0.45-15.81,0.65-31.63,0.81-47.45c0.2-19.96,0.33-39.92,0.38-59.88c0.07-27.66,0.05-55.32,0.05-82.98
				c0-24.15-0.03-48.29-0.02-72.44c0.01-29,0.02-58,0.06-87c0.05-36.5,0.14-73.01,0.21-109.51c0.06-35.14,0.13-70.28,0.15-105.42
				c0.02-21.35-0.01-42.71-0.08-64.06c-0.02-6.99-0.47-13.99-0.18-20.97c0.08-1.91,2.12-3.74,3.27-5.61
				c1.2,1.43,2.93,2.68,3.52,4.33c5.71,15.99,10.33,32.43,17.03,47.98c6.93,16.09,15.08,31.78,24.09,46.81
				c7.48,12.48,16.33,24.3,25.77,35.39c10.9,12.79,22.49,25.15,34.94,36.41c11.2,10.13,23.95,18.55,36.08,27.64
				c4.53,3.39,9.31,6.46,13.81,9.89c0.54,0.41,0.48,2.67-0.11,3.3c-2.16,2.28-6,6.49-6.85,5.98c-13.23-7.82-25.68-17.02-39.15-24.35
				c-12.99-7.07-26.77-12.84-40.57-18.24c-7.09-2.77-14.78,3.57-15.83,11.51C2580.96,2216.1,2580.54,2218.03,2579.94,2221.43z"></path>
			<path d="M2374.9,2457.53c-2.05,16.98-4.35,37.07-6.95,57.12c-0.91,7-2.5,13.92-3.84,20.86c-0.13,0.65-0.72,1.22-1.09,1.82
				c-0.38-0.4-0.89-0.74-1.12-1.21c-2.65-5.35-6-10.51-7.61-16.16c-1-3.5,0.61-7.77,1.14-11.68c1.16-8.5,3.02-16.96,3.42-25.49
				c0.63-13.4,0.89-26.88,0.19-40.27c-0.72-13.55-1.99-27.18-4.49-40.49c-3.21-17.08-7.14-34.11-12.17-50.73
				c-4.01-13.25-9.66-26.07-15.45-38.68c-5.95-12.97-11.98-26.09-19.75-37.98c-9.43-14.43-20.27-28.03-31.36-41.27
				c-7.82-9.33-16.75-17.82-25.78-26.05c-12.42-11.32-25.17-22.7-41.85-27.14c-11.59-3.09-18.56,0.62-20.96,16.37
				c-2.19,14.4,3.47,26.64,9.05,38.87c7.28,15.96,15.46,31.5,23.17,47.26c0.33,0.67,0.09,2.2-0.44,2.6
				c-12.18,9.27-24.49,18.37-36.63,27.69c-3.5,2.69-6.48,6.05-9.84,8.94c-0.48,0.41-2.4,0.17-2.63-0.3
				c-8.07-15.76-15.99-31.6-24-47.39c-6.08-12-12.22-23.96-18.4-35.91c-8.16-15.79-16.49-31.49-24.56-47.32
				c-11.25-22.06-22.32-44.2-33.47-66.3c-5.01-9.92-10.06-19.83-15.07-29.75c-8.13-16.12-16.23-32.26-24.38-48.38
				c-2.49-4.93-5.2-9.74-7.58-14.72c-0.46-0.96-0.13-3.34,0.37-3.52c1.25-0.43,3.46-0.54,4.13,0.23c3.3,3.81,5.78,8.39,9.35,11.89
				c13.34,13.12,26.57,26.41,40.66,38.69c9.99,8.71,20.81,16.72,32.14,23.61c16.48,10.02,33.85,18.57,50.65,28.08
				c12.71,7.2,25.22,14.76,37.63,22.46c8.85,5.49,17.71,11.06,26,17.34c14.68,11.15,29.94,21.83,43.09,34.62
				c14.81,14.4,28.59,30.15,40.92,46.74c11.41,15.35,20.76,32.31,30.12,49.06c5.32,9.52,9.16,19.92,13.07,30.16
				c3.95,10.34,7.87,20.78,10.53,31.49c3.67,14.77,6.77,29.74,8.95,44.79C2372.29,2422.95,2373.14,2438.62,2374.9,2457.53z"></path>
			<path d="M2797.62,2177.84c-7.24,3.28-15.27,5.48-21.56,10.06c-12.61,9.19-24.79,19.12-36.17,29.79
				c-10.63,9.96-21.22,20.41-29.62,32.21c-11.24,15.79-21.64,32.47-30.04,49.9c-9.97,20.68-19.14,42.08-25.5,64.08
				c-6.28,21.73-9.77,44.46-12.34,67c-1.98,17.4-1.29,35.2-0.57,52.78c0.46,11.21,3.23,22.32,4.74,33.5
				c0.22,1.63-0.56,3.51-1.25,5.12c-1.91,4.42-3.99,8.77-6.09,13.1c-0.36,0.74-1.14,1.27-1.73,1.9c-0.32-0.55-0.84-1.08-0.94-1.67
				c-2.71-16.92-5.97-33.78-7.86-50.8c-1.49-13.4-2.3-27.04-1.55-40.47c0.98-17.69,2.64-35.5,6.1-52.85
				c3.82-19.2,8.78-38.37,15.49-56.73c6.43-17.59,14.53-34.84,24.08-50.95c11.08-18.69,23.56-36.76,37.25-53.62
				c10.87-13.39,24.04-25.04,37.02-36.54c10.68-9.46,22.2-18.12,34.04-26.1c15.6-10.51,31.69-20.32,47.91-29.85
				c16.44-9.66,33.57-18.17,49.88-28.02c14.77-8.92,29.45-18.2,43.07-28.74c12.77-9.89,24.42-21.32,35.94-32.7
				c5.7-5.63,9.88-12.77,15.03-18.98c0.86-1.03,3.22-0.82,4.88-1.18c0.02,1.53,0.58,3.33-0.03,4.54
				c-9.43,18.91-18.98,37.76-28.58,56.58c-12.07,23.68-24.22,47.32-36.33,70.99c-10.99,21.47-22.02,42.92-32.92,64.43
				c-8,15.79-15.72,31.73-23.72,47.52c-8.45,16.67-17.07,33.25-25.7,49.83c-0.2,0.38-1.67,0.62-2.06,0.31
				c-10.91-8.77-21.71-17.69-32.65-26.43c-4.6-3.67-9.5-6.96-14.16-10.55c-0.56-0.43-0.99-1.83-0.71-2.41
				c9.19-18.92,19.01-37.56,27.54-56.77c5.29-11.9,8.2-24.72,2.96-37.77c-2.35-5.84-6.17-9.65-13.11-8.77
				C2798.1,2179.02,2797.86,2178.43,2797.62,2177.84z"></path>
			<path d="M2226.27,2674.78c16.67-0.21,32.6-3.42,46.36-12.94c7.6-5.26,14.15-12.2,20.56-18.96c4.97-5.24,8.97-11.39,13.47-17.08
				c0.15-0.19,1.29-0.01,1.44,0.27c0.53,1.03,0.76,2.2,1.23,3.26c4.67,10.58,4.16,12.55-4.31,20.8c-7.72,7.52-14.5,16.2-22.98,22.68
				c-10.29,7.87-21.38,15.2-33.13,20.53c-15.36,6.97-32.31,9.21-49.1,7.69c-17.49-1.58-34.17-6.76-49.85-15.16
				c-17.56-9.41-33.34-21.21-45.38-36.87c-9.58-12.47-18.04-26.18-24.72-40.4c-6.64-14.14-10.52-29.6-10.52-45.59
				c0-12.84-0.84-25.77,0.47-38.48c1.3-12.61,4.16-25.17,7.58-37.41c3.14-11.24,7.05-22.47,12.22-32.9
				c7.5-15.12,16.09-29.75,24.9-44.16c5.56-9.1,11.92-17.81,18.76-26c8.24-9.88,17.2-19.18,26.15-28.44
				c6.51-6.74,13.14-13.48,20.38-19.4c10.85-8.88,22.33-16.97,33.44-25.54c9.06-6.99,17.79-14.4,26.98-21.21
				c8.43-6.26,17.31-11.9,25.9-17.94c3.89-2.74,7.57-5.78,11.34-8.69c0.13-0.1,0.19-0.37,0.3-0.39c0.71-0.07,1.82-0.4,2.07-0.08
				c2.21,2.89,4.29,5.89,6.29,8.93c0.04,0.07-1.22,1.04-1.9,1.53c-8.59,6.2-17.22,12.36-25.77,18.61
				c-7.77,5.68-15.51,11.4-23.17,17.23c-10.9,8.29-21.75,16.65-32.55,25.08c-7.11,5.56-14.53,10.82-21,17.06
				c-10.86,10.48-21.52,21.25-31.43,32.62c-7.87,9.03-14.83,18.91-21.58,28.83c-6.11,8.97-11.8,18.28-16.92,27.84
				c-6.04,11.27-11.92,22.71-16.62,34.58c-3.63,9.16-5.94,18.97-7.67,28.71c-1.37,7.74-1.89,15.88-1.14,23.68
				c1.14,11.84,2.58,23.88,5.96,35.22c3.57,11.99,8.79,23.68,14.72,34.73c4.81,8.95,11.42,17.02,17.81,25.03
				c12.19,15.29,27.24,27.34,44.33,36.77c13.81,7.61,28.43,13,44.23,14.71C2217.69,2673.96,2221.98,2674.36,2226.27,2674.78z"></path>
			<path d="M2914.79,2528.58c0.99-14.62-0.38-29.02-5.49-42.71c-4.93-13.21-10.18-26.41-16.68-38.88
				c-7.13-13.68-15.45-26.81-24.03-39.66c-6.61-9.9-13.97-19.4-21.84-28.33c-8.67-9.82-17.74-19.44-27.66-27.95
				c-15.21-13.05-31.19-25.22-47.06-37.49c-9.08-7.02-18.57-13.5-27.9-20.2c-7.03-5.05-14.09-10.04-21.11-15.09
				c-2.62-1.89-6.95-3.63-7.28-5.9c-0.41-2.79,2.43-6.15,4.18-9.07c0.37-0.61,2.5-0.94,3.18-0.47c6.82,4.69,13.57,9.48,20.21,14.42
				c9.19,6.82,18.25,13.82,27.42,20.67c7.04,5.26,14.26,10.28,21.21,15.66c8.69,6.72,17.43,13.42,25.7,20.64
				c10.77,9.4,21.77,18.68,31.45,29.14c11.27,12.18,21.77,25.17,31.56,38.57c8.58,11.74,16.3,24.2,23.29,36.96
				c5.53,10.1,10.03,20.9,13.78,31.8c4.36,12.65,8.67,25.55,10.69,38.7c2.53,16.48,3.86,33.35,3.51,50.01
				c-0.25,12.25-3.01,24.72-6.48,36.56c-5.21,17.82-13.85,34.23-25.56,48.8c-11.49,14.3-24.96,26.32-40.58,36.13
				c-12.85,8.07-26.59,13.5-41.15,17.23c-20.37,5.22-40.43,3.43-60.38-2.47c-13.78-4.08-25.64-11.57-36.16-20.95
				c-10.57-9.42-20.34-19.74-30.43-29.7c-3.74-3.7-5.67-7.66-1.53-12.43c0.85-0.98,1.28-2.33,1.84-3.54
				c0.61-1.3,1.14-2.64,1.71-3.96c0.97,1.2,1.93,2.41,2.92,3.61c5.73,6.94,11.02,14.32,17.32,20.69
				c7.77,7.85,16.15,15.02,26.91,19.01c15.61,5.8,31.48,7.18,47.91,5.03c22.75-2.97,43.01-12.15,60.75-26.01
				c11.45-8.95,21.52-19.88,31.24-30.78c10.86-12.19,19.06-26.44,24.08-41.92c4.32-13.3,6.59-27.27,9.73-40.95
				C2914.43,2532.04,2914.55,2530.29,2914.79,2528.58z"></path>
			<path d="M2833.86,2951.27c-8.37,0-15.59,0.94-22.49-0.18c-20.31-3.3-40.65-6.74-60.67-11.46c-11.48-2.71-22.59-7.46-33.43-12.28
				c-10.67-4.74-20.99-10.36-31.08-16.24c-9.92-5.79-19.73-11.89-28.91-18.77c-11.25-8.44-21.99-17.6-32.58-26.86
				c-7.94-6.94-15.37-14.48-22.9-21.87c-3.66-3.59-7.15-7.36-10.45-11.28c-0.72-0.85-0.78-2.94-0.26-4.05
				c5.92-12.58,12.01-25.08,18.09-37.59c0.41-0.84,1.11-1.53,1.67-2.3c0.55,0.56,1.22,1.05,1.62,1.7
				c5.6,9.19,10.47,18.91,16.89,27.48c9.88,13.18,20.04,26.32,31.51,38.1c11.79,12.11,24.96,22.97,38.12,33.64
				c18.11,14.69,38.51,25.85,59.77,35.23c10.9,4.81,22.28,8.82,33.81,11.8c12.08,3.13,24.62,4.5,36.91,6.87
				c1.99,0.38,3.91,1.74,5.56,3.03c0.75,0.58,1.36,2.41,0.99,3.11C2835.42,2950.49,2833.95,2951.2,2833.86,2951.27z"></path>
			<path d="M2195.5,2951.44c-8.89,0-17.78,0.09-26.67-0.09c-1.46-0.03-3.14-0.94-4.22-1.97c-0.38-0.36,0.38-2.84,1.24-3.4
				c1.93-1.27,4.22-2.68,6.41-2.76c20.29-0.8,39.31-6.91,57.88-14.26c13.06-5.17,26.09-10.87,38.17-17.97
				c14.72-8.64,28.86-18.45,42.46-28.78c10.17-7.73,19.67-16.56,28.43-25.88c10.09-10.73,19.23-22.37,28.39-33.93
				c5.24-6.61,9.83-13.75,14.44-20.82c2.34-3.59,4.04-7.58,6.08-11.36c0.37-0.68,1.02-1.2,1.54-1.79c0.51,0.58,1.18,1.08,1.51,1.75
				c6.3,12.85,12.81,25.62,18.54,38.72c0.72,1.65-2.16,5.58-4.2,7.63c-11.52,11.6-22.92,23.37-35.1,34.25
				c-9.66,8.63-19.88,16.86-30.77,23.82c-17.15,10.95-34.79,21.22-52.76,30.78c-20.47,10.89-42.68,17.27-65.39,21.66
				c-8.54,1.65-17.26,2.35-25.9,3.49C2195.55,2950.81,2195.53,2951.12,2195.5,2951.44z"></path>
		</g>
	</g>
</g>
<g id="Livello_2">
	<g>
		<path d="M4212.37,4800.18c-486.69-54.52-854.02-350.76-1144.63-802.39l-109.89,212.9c359.77,398.65,779.06,624.86,1254.52,629.55
			C4243.56,4840.24,4247.85,4805.04,4212.37,4800.18z"></path>
		<path d="M3835.79,1611.23L2525.11,4247.17c-10.31,20.75-39.91,20.75-50.22,0L1164.21,1611.23l-250.68,206.03l1564.32,3089.13
			c9.19,18.14,35.1,18.14,44.28,0l1564.32-3089.13L3835.79,1611.23z"></path>
		<path d="M787.63,4800.18c-35.48,4.86-31.19,40.06,0,40.06c475.46-4.69,894.75-230.9,1254.52-629.55l-109.89-212.9
			C1641.65,4449.42,1274.32,4745.66,787.63,4800.18z"></path>
		<path d="M2912.07,3293.84V1078.98c0.33-81.75,32.63-116.7,109.88-85.85c129.2,53.18,257.41,122.84,384.6,209.47l37.77-54.94
			c-400.91-236.08-648.21-610.2-786.56-1057.26c-4.68-15.12-27.34-11.12-27.35,4.7l-3.35,3356.7
			c-10.64,46.11-39.36,67.29-82.41,68.68l120.19,274.71L2912.07,3293.84z"></path>
		<path d="M4951.33,83.22c0,0-43.03,96.07-324.61,306.68s-869.92,341.1-1238.49,1011.85s-204.33,1321.26-185.43,1304.88l54.94-96.15
			c-63.19-421.59-2.29-753.17,153.38-1089.69c155.67-336.52,553.84-734.67,661.6-647.86c95.72,65.88,27.03,263.77-128.2,531.11
			l251.82,199.17L4969.39,96.78C4975.27,85.32,4960.69,74.38,4951.33,83.22z"></path>
		<path d="M3644.63,1285.01l-36.63,57.23c622.57,407.34,977.66,825.05,1030.17,1254.52c20.6,512.8-428.09,853.9-803.53,814.98
			c-151.09-20.6-280.43-169.41-322.79-280.43l-52.65,99.58c285.21,378.17,695.59,450.64,1043.56,148.46
			C5109.97,2848.23,4667.94,1948.9,3644.63,1285.01z"></path>
		<path d="M1978.05,993.13c77.25-30.85,109.55,4.1,109.88,85.85v2214.86l247.24,501.35l120.19-274.71
			c-43.06-1.39-71.77-22.57-82.41-68.68L2369.6,95.1c-0.02-15.82-22.68-19.82-27.35-4.7
			c-138.35,447.06-385.66,821.18-786.56,1057.26l37.77,54.94C1720.64,1115.96,1848.85,1046.31,1978.05,993.13z"></path>
		<path d="M1055.47,1404.05c-155.22-267.34-223.92-465.23-128.2-531.11c107.75-86.81,505.93,311.34,661.6,647.86
			s216.57,668.1,153.38,1089.69l54.94,96.15c18.9,16.38,183.14-634.13-185.43-1304.88S654.85,600.52,373.27,389.91
			S48.67,83.22,48.67,83.22c-9.36-8.84-23.93,2.1-18.05,13.55l773.04,1506.44L1055.47,1404.05z"></path>
		<path d="M1540.8,3230.89l-52.65-99.58c-42.35,111.03-171.7,259.83-322.79,280.43c-375.44,38.92-824.14-302.18-803.53-814.98
			c52.51-429.46,407.6-847.18,1030.17-1254.52l-36.63-57.23C332.07,1948.9-107.62,2845.88,499.59,3376.99
			C847.56,3679.17,1255.59,3609.05,1540.8,3230.89z"></path>
	</g>
</g>
</svg>
